HIERARCHY
ROOT root
{
  OFFSET 0.000000 0.000000 0.000000
  CHANNELS 6 Xposition Yposition Zposition Zrotation Yrotation Xrotation
  JOINT lhipjoint
  {
    OFFSET 0.000000 0.000000 0.000000
    CHANNELS 3 Zrotation Yrotation Xrotation
    JOINT lfemur
    {
      OFFSET 0.092895 -0.080368 0.053214
      CHANNELS 3 Zrotation Yrotation Xrotation
      JOINT ltibia
      {
        OFFSET 0.119402 -0.328054 0.000000
        CHANNELS 3 Zrotation Yrotation Xrotation
        JOINT lfoot
        {
          OFFSET 0.133514 -0.366828 0.000000
          CHANNELS 3 Zrotation Yrotation Xrotation
          JOINT ltoes
          {
            OFFSET 0.010024 -0.027541 0.098137
            CHANNELS 3 Zrotation Yrotation Xrotation
            End Site
            {
              OFFSET 0.000000 -0.000000 0.051480
            }
          }
        }
      }
    }
  }
  JOINT rhipjoint
  {
    OFFSET 0.000000 0.000000 0.000000
    CHANNELS 3 Zrotation Yrotation Xrotation
    JOINT rfemur
    {
      OFFSET -0.081139 -0.080368 0.053214
      CHANNELS 3 Zrotation Yrotation Xrotation
      JOINT rtibia
      {
        OFFSET -0.118805 -0.326413 0.000000
        CHANNELS 3 Zrotation Yrotation Xrotation
        JOINT rfoot
        {
          OFFSET -0.132577 -0.364252 0.000000
          CHANNELS 3 Zrotation Yrotation Xrotation
          JOINT rtoes
          {
            OFFSET -0.012893 -0.035423 0.101865
            CHANNELS 3 Zrotation Yrotation Xrotation
            End Site
            {
              OFFSET -0.000000 -0.000000 0.054123
            }
          }
        }
      }
    }
  }
  JOINT lowerback
  {
    OFFSET 0.000000 0.000000 0.000000
    CHANNELS 3 Zrotation Yrotation Xrotation
    JOINT upperback
    {
      OFFSET 0.003509 0.109365 -0.027811
      CHANNELS 3 Zrotation Yrotation Xrotation
      JOINT thorax
      {
        OFFSET -0.001757 0.114933 -0.003291
        CHANNELS 3 Zrotation Yrotation Xrotation
        JOINT lowerneck
        {
          OFFSET -0.003947 0.121461 0.009804
          CHANNELS 3 Zrotation Yrotation Xrotation
          JOINT upperneck
          {
            OFFSET 0.002495 0.079592 0.014993
            CHANNELS 3 Zrotation Yrotation Xrotation
            JOINT head
            {
              OFFSET -0.007567 0.081194 0.003489
              CHANNELS 3 Zrotation Yrotation Xrotation
              End Site
              {
                OFFSET -0.002811 0.082321 -0.000389
              }
            }
          }
        }
        JOINT lclavicle
        {
          OFFSET -0.003947 0.121461 0.009804
          CHANNELS 3 Zrotation Yrotation Xrotation
          JOINT lhumerus
          {
            OFFSET 0.123265 0.083398 -0.020147
            CHANNELS 3 Zrotation Yrotation Xrotation
            JOINT lradius
            {
              OFFSET 0.285304 -0.000000 0.000000
              CHANNELS 3 Zrotation Yrotation Xrotation
              JOINT lwrist
              {
                OFFSET 0.191354 -0.000000 0.000000
                CHANNELS 3 Zrotation Yrotation Xrotation
                End Site
                {
                  OFFSET 0.095677 -0.000000 -0.000000
                }
              }
            }
          }
        }
        JOINT rclavicle
        {
          OFFSET -0.003947 0.121461 0.009804
          CHANNELS 3 Zrotation Yrotation Xrotation
          JOINT rhumerus
          {
            OFFSET -0.116294 0.097558 -0.026776
            CHANNELS 3 Zrotation Yrotation Xrotation
            JOINT rradius
            {
              OFFSET -0.286179 -0.000000 0.000000
              CHANNELS 3 Zrotation Yrotation Xrotation
              JOINT rwrist
              {
                OFFSET -0.177776 -0.000000 -0.000000
                CHANNELS 3 Zrotation Yrotation Xrotation
                End Site
                {
                  OFFSET -0.088888 -0.000000 -0.000000
                }
              }
            }
          }
        }
      }
    }
  }
}
MOTION
Frames: 15
Frame Time: 0.04166667
0.00000 0.83282 0.00000 3.10831 0.00001 -4.60951 0.00000 -0.00000 0.00000 -31.10863 -10.45133 5.04415 6.10697 14.53121 45.40955 1.10787 0.10382 -19.94219 0.34380 -3.76765 -10.42388 0.00000 -0.00000 0.00000 14.97647 12.90542 -33.45167 -12.61814 -18.63991 67.93520 -0.82840 -13.54427 -26.89360 -1.62765 8.04314 -22.84520 -7.04186 -1.61017 11.15620 -0.76037 -2.63941 4.92768 3.46200 -1.31821 -0.78691 5.85488 4.52707 -11.33690 -6.03490 5.68823 5.21524 -2.40932 2.64640 3.73490 -0.00000 -0.00000 0.00000 -86.50499 25.34407 29.04560 128.92455 -53.42014 -92.96459 -0.00000 0.00000 -23.56050 -0.00000 -0.00000 0.00000 71.35960 -37.79540 51.76345 -102.23743 59.42651 -70.57752 0.00000 -0.00000 -31.10110
0.00000 0.86063 0.00000 2.83100 -0.91148 -5.46068 0.00000 -0.00000 0.00000 -28.87042 -4.98132 8.99133 8.52715 16.49362 54.44001 0.30628 3.90972 -12.63823 0.27121 -3.34993 -9.25455 0.00000 -0.00000 0.00000 13.67778 22.41985 -27.31384 -3.03613 -10.75331 31.45235 -1.43449 -14.07632 -31.53074 -2.93015 10.58111 -30.87982 -5.89016 -2.30945 9.39772 -0.11485 -3.31537 5.41655 3.45769 -1.70938 0.72226 6.59192 5.30488 -10.29090 -8.65823 6.90226 4.81422 -3.26436 3.16981 3.64413 -0.00000 0.00000 0.00000 -86.02686 21.81356 33.85033 138.88089 -48.71912 -100.72394 -0.00000 0.00000 -14.98050 -0.00000 0.00000 0.00000 72.00126 -47.77679 44.91738 -109.63246 58.49234 -76.91614 0.00000 -0.00000 -37.11100
0.00000 0.82307 0.00000 2.27242 1.82195 -9.51933 0.00000 -0.00000 0.00000 -23.12196 -5.59001 -0.66503 15.38181 19.48078 76.38413 0.82607 5.90042 -20.29646 0.04562 -1.37845 -3.79077 0.00000 -0.00000 0.00000 15.95892 19.06061 -20.18386 -3.34176 -11.22876 33.05531 -0.01266 -12.04844 -17.30990 -4.86697 13.23240 -40.24478 -4.57325 -2.67761 12.59530 0.11859 -3.72378 6.39353 3.13940 -1.84071 -0.02300 6.37548 4.91788 -9.13094 -9.21638 6.48469 4.23292 -3.45964 2.97650 3.26200 0.00000 -0.00000 0.00000 -88.81885 24.24980 31.83410 137.69708 -49.37663 -99.82983 -0.00000 0.00000 -23.52960 0.00000 -0.00000 0.00000 71.40952 -44.91135 45.07908 -105.44865 59.07872 -73.33753 0.00000 -0.00000 -38.19560
0.00000 0.80151 0.00000 -3.00286 -1.15219 -11.52726 0.00000 -0.00000 0.00000 -14.46116 -11.57834 -20.11842 17.19030 19.80966 81.75989 1.01247 5.45779 -21.72619 0.02558 -1.03248 -2.83817 0.00000 -0.00000 0.00000 26.01296 10.81312 -19.61700 -7.25605 -15.54377 49.83620 -0.74715 -5.11788 -18.97537 -2.63719 10.08318 -29.24651 0.27427 -1.90625 16.41980 1.49951 -1.97073 7.36592 1.75021 -0.80920 -1.32153 7.33208 4.70578 -7.76314 -10.36600 6.08142 1.74301 -4.03909 2.82912 2.33429 -0.00000 0.00000 0.00000 -91.96741 29.62169 24.76887 128.81321 -53.46308 -92.87516 -0.00000 0.00000 -23.17010 -0.00000 0.00000 0.00000 64.51391 -32.28896 54.83223 -98.80314 59.70514 -67.61619 0.00000 -0.00000 -34.20440
0.00000 0.82729 0.00000 -4.69934 -0.31412 -11.69644 0.00000 -0.00000 0.00000 -13.43676 -16.48091 -29.04618 8.77967 16.66382 55.32499 0.91868 4.02376 -19.98940 0.18949 -2.80344 -7.73200 0.00000 -0.00000 0.00000 30.05219 6.98993 -15.38353 -9.89544 -17.35063 59.13832 -0.09013 -8.63602 -13.88641 -2.95078 10.61494 -30.99196 0.53727 -1.57576 17.37420 1.29210 -1.34712 8.94797 1.28276 -0.42616 -0.16381 6.61101 4.17886 -8.78769 -8.89973 5.29282 1.38713 -3.50474 2.44995 2.25777 0.00000 0.00000 0.00000 -87.36599 33.25796 24.61423 127.06078 -54.11428 -91.46116 -0.00000 0.00000 -24.45090 0.00000 0.00000 0.00000 62.31094 -33.98684 54.09112 -111.16656 58.23755 -78.22231 0.00000 -0.00000 -32.07200
0.00000 0.84499 0.00000 -2.85495 -4.04920 -12.59284 0.00000 -0.00000 0.00000 -13.20099 -22.37209 -19.18924 2.06705 9.00437 25.80899 0.65524 9.18456 -21.27230 0.52195 -4.63014 -12.85659 0.00000 -0.00000 0.00000 25.34839 3.71119 -24.75055 -13.19091 -18.85001 69.71741 0.35245 -13.71241 -14.51050 -1.65735 8.11259 -23.05658 -2.00090 -0.82627 20.54710 -0.18521 -0.65572 10.27320 1.06712 -0.06576 -0.33448 7.45235 5.11366 -6.62159 -10.67240 6.41566 -2.85003 -4.21428 3.10732 0.84008 0.00000 0.00000 0.00000 -87.25425 32.13702 17.36054 121.27524 -55.96043 -86.71782 -0.00000 0.00000 -28.58740 0.00000 0.00000 0.00000 63.56260 -35.68711 50.75611 -110.79599 58.30112 -77.90712 0.00000 -0.00000 -34.98380
0.00000 0.79193 0.00000 -4.45101 -7.43039 -12.38539 0.00000 -0.00000 0.00000 -10.94892 -17.69364 -25.30741 4.69913 13.03675 39.50619 -0.14803 7.71317 -6.69147 0.41457 -4.13300 -11.45115 0.00000 -0.00000 0.00000 24.79565 8.53849 -30.35381 -8.79104 -16.67135 55.36462 -0.28421 -9.53102 -17.63036 -3.27544 11.12812 -32.71318 -0.96422 -1.22427 21.50720 -0.50942 -1.10919 9.49994 0.24326 -0.27549 -1.67504 7.64817 7.08853 -5.10939 -9.38163 9.15090 -1.89236 -4.14887 4.49329 1.17089 0.00000 0.00000 0.00000 -84.42999 23.65659 14.50192 101.70014 -59.47636 -70.11480 -0.00000 0.00000 -31.50830 0.00000 0.00000 0.00000 67.20431 -30.92548 49.07642 -96.44178 59.84262 -65.57579 0.00000 -0.00000 -36.99050
0.00000 0.77850 0.00000 0.81413 -5.67211 -13.74095 0.00000 -0.00000 0.00000 -17.97494 -13.04841 -27.23448 8.31806 16.34828 53.70037 0.31656 1.81334 -11.44825 0.48713 -4.47532 -12.41790 0.00000 -0.00000 0.00000 18.43121 14.70705 -28.99759 -8.95272 -16.77720 55.92647 0.03751 -11.66148 -16.06337 -1.84381 8.53286 -24.34464 -4.99958 -0.23565 20.80200 -2.28845 -0.51762 9.91261 0.50048 -0.03804 -0.80855 4.08989 9.28268 -9.90737 -3.36858 12.14320 5.22793 -0.99724 5.94775 3.99034 -0.00000 -0.00000 0.00000 -77.19202 9.39373 23.04098 82.07311 -59.76123 -53.14062 -0.00000 0.00000 -28.07410 -0.00000 -0.00000 0.00000 71.28173 -25.33211 49.46634 -87.98742 59.98469 -58.25715 0.00000 -0.00000 -42.07270
0.00000 0.80850 0.00000 -1.27549 -1.81556 -10.55094 0.00000 -0.00000 0.00000 -17.11395 -16.34718 -22.60065 7.59640 15.81422 51.09556 0.53717 1.77794 -14.60314 0.50327 -4.54781 -12.62318 0.00000 -0.00000 0.00000 21.69206 14.55306 -22.62951 -7.62220 -15.83422 51.19018 -0.07381 -14.26321 -21.06168 -1.55917 7.88021 -22.35084 -2.98924 -0.84274 18.66340 -1.36394 -1.01410 8.80425 0.43881 -0.29832 -0.95267 5.27167 9.49955 -8.33329 -4.94793 12.45760 4.45516 -1.77779 6.09068 3.65370 -0.00000 -0.00000 0.00000 -79.39429 5.24062 27.59656 85.69409 -59.92982 -56.27185 -0.00000 0.00000 -26.70140 -0.00000 -0.00000 0.00000 72.67291 -24.29564 48.14606 -81.24009 59.70805 -52.42114 0.00000 -0.00000 -35.66990
0.00000 0.84605 0.00000 -2.15454 -0.78182 -6.67607 0.00000 -0.00000 0.00000 -16.29558 -16.82605 -16.93988 5.35003 13.76746 42.31382 0.61107 2.81350 -16.05427 0.23359 -3.11065 -8.58696 0.00000 -0.00000 0.00000 23.64060 13.82758 -16.58699 -5.14407 -13.54423 41.44146 -0.14112 -14.08807 -21.52874 -1.21663 6.99665 -19.70545 -1.01310 -0.63455 15.99000 -1.22466 -0.51021 7.93383 -0.63010 -0.04973 -0.54418 6.36175 10.65460 -9.09093 -7.34748 14.01180 4.08372 -2.31660 6.76407 3.64339 0.00000 -0.00000 0.00000 -81.02420 5.48765 28.54816 84.93790 -59.90295 -55.61752 -0.00000 0.00000 -25.73960 0.00000 -0.00000 0.00000 73.16143 -24.08585 47.09369 -78.53396 59.49735 -50.08688 0.00000 -0.00000 -37.76000
0.00000 0.85995 0.00000 -1.71615 0.63345 -4.46141 0.00000 -0.00000 0.00000 -17.28295 -19.85061 -11.04095 4.09040 12.27974 36.72890 0.76507 5.32659 -19.29910 0.26024 -3.28199 -9.06484 0.00000 -0.00000 0.00000 25.53889 16.08442 -10.66854 -3.87756 -11.99566 35.71664 -0.30527 -17.48770 -27.29227 -0.79322 5.68510 -15.87342 -0.86144 -0.35903 13.55210 -1.21530 -0.18093 7.33831 -0.75497 0.08185 0.11395 9.57893 11.83030 -6.72220 -11.42070 15.58980 1.88356 -4.00572 7.55197 3.29795 -0.00000 -0.00000 0.00000 -81.19554 7.56015 27.97078 74.35342 -59.05444 -46.49269 -0.00000 0.00000 -25.53710 -0.00000 -0.00000 0.00000 73.77588 -25.13768 44.67558 -76.24756 59.27316 -48.11911 0.00000 -0.00000 -37.50250
0.00000 0.86486 0.00000 -0.93030 0.98911 -2.50144 0.00000 -0.00000 0.00000 -17.83427 -21.28958 -9.05369 3.72217 11.78123 34.96238 0.91646 5.93574 -21.17244 0.14663 -2.46765 -6.79997 0.00000 -0.00000 0.00000 25.95344 16.84016 -9.02256 -3.57813 -11.57680 34.25082 -0.60233 -17.95535 -30.00009 -0.63981 5.11741 -14.24373 0.09037 0.47073 11.77490 -1.43884 0.96265 6.76952 -1.64750 0.65682 0.49600 12.55890 12.95160 -4.24118 -15.56090 17.22860 -0.20866 -5.67408 8.43447 3.10093 -0.00000 0.00000 0.00000 -79.96830 7.81072 26.82299 50.84042 -53.32888 -26.84678 -0.00000 0.00000 -21.82240 -0.00000 0.00000 0.00000 76.28130 -25.34471 40.04815 -73.63225 58.96312 -45.87447 0.00000 -0.00000 -37.80810
0.00000 0.86716 0.00000 -0.24188 0.59965 -1.41598 0.00000 -0.00000 0.00000 -18.72471 -21.84522 -6.76658 3.42735 11.35666 33.49239 1.01245 7.29108 -22.97496 0.17347 -2.68299 -7.39739 0.00000 -0.00000 0.00000 26.38266 17.86753 -7.17664 -3.40047 -11.31673 33.35564 -1.00714 -18.04277 -32.69431 -0.55957 4.79145 -13.31468 0.96581 1.53885 10.30600 -1.58310 2.40610 6.29930 -2.40027 1.38504 0.88697 16.85180 16.42940 1.70784 -18.73980 22.52130 -2.46775 -7.01378 11.32880 3.07638 0.00000 -0.00000 0.00000 -79.40266 6.71953 22.02454 28.07814 -39.18807 -10.17302 -0.00000 0.00000 -12.30580 0.00000 -0.00000 0.00000 77.80101 -25.43121 37.38415 -69.18410 58.29773 -42.07593 0.00000 -0.00000 -37.65870
0.00000 0.86718 0.00000 0.28159 1.21993 -0.92770 0.00000 -0.00000 0.00000 -19.77195 -23.22878 -4.40550 3.22201 11.04606 32.43537 1.20266 8.06514 -25.08504 0.16629 -2.62718 -7.24244 0.00000 -0.00000 0.00000 26.83328 18.57674 -5.27819 -3.30421 -11.17193 32.86195 -1.42774 -18.32414 -35.39798 -0.41444 4.13236 -11.44935 1.31476 2.18152 8.69688 -1.34204 3.24445 6.07474 -2.34677 1.79994 1.57761 17.17110 17.85290 4.91018 -16.92160 24.69450 -3.33635 -6.59012 12.52350 2.45459 -0.00000 -0.00000 0.00000 -79.50003 5.55640 11.00681 15.26831 -24.51855 -3.33649 -0.00000 -0.00000 5.17633 -0.00000 -0.00000 0.00000 78.93516 -25.66042 34.22755 -66.96123 57.89622 -40.18876 0.00000 -0.00000 -38.96840
0.00000 0.86545 0.00000 -0.33620 2.45756 -0.78520 0.00000 -0.00000 0.00000 -18.98162 -23.07494 -4.20558 3.28611 11.14440 32.76843 1.33502 7.00569 -25.37637 0.20484 -2.91415 -8.03983 0.00000 -0.00000 0.00000 28.19509 18.83768 -4.04213 -3.22979 -11.05807 32.47596 -1.89977 -18.37124 -37.91155 -0.17716 2.71120 -7.47573 2.16558 2.28898 8.01060 -0.79606 3.40257 5.79290 -2.24260 1.88033 1.68497 18.54420 17.52140 6.11904 -17.11260 24.50110 -3.45566 -6.94435 12.46530 2.38848 0.00000 -0.00000 0.00000 -80.20970 7.44409 0.86919 12.76667 -20.94438 -2.36923 -0.00000 -0.00000 10.84670 0.00000 -0.00000 0.00000 79.01490 -25.80834 33.23387 -64.09387 57.30566 -37.76757 0.00000 -0.00000 -39.49310
